HIERARCHY
ROOT Hips
{
	OFFSET 0.00000 0.00000 0.00000
	CHANNELS 6 Xposition Yposition Zposition Zrotation Yrotation Xrotation 
	JOINT LHipJoint
	{
		OFFSET 0 0 0
		CHANNELS 3 Zrotation Yrotation Xrotation
		JOINT LeftHip
		{
			OFFSET 1.42489 -1.84941 0.69647
			CHANNELS 3 Zrotation Yrotation Xrotation
			JOINT LeftKnee
			{
				OFFSET 2.44443 -6.71602 0.00000
				CHANNELS 3 Zrotation Yrotation Xrotation
				JOINT LeftAnkle
				{
					OFFSET 2.62838 -7.22137 0.00000
					CHANNELS 3 Zrotation Yrotation Xrotation
					JOINT LeftToe
					{
						OFFSET 0.24036 -0.66037 2.29953
						CHANNELS 3 Zrotation Yrotation Xrotation
						End Site
						{
							OFFSET 0.00000 -0.00000 1.19837
						}
					}
				}
			}
		}
	}
	JOINT RHipJoint
	{
		OFFSET 0 0 0
		CHANNELS 3 Zrotation Yrotation Xrotation
		JOINT RightHip
		{
			OFFSET -1.37055 -1.84941 0.69647
			CHANNELS 3 Zrotation Yrotation Xrotation
			JOINT RightKnee
			{
				OFFSET -2.54834 -7.00152 0.00000
				CHANNELS 3 Zrotation Yrotation Xrotation
				JOINT RightAnkle
				{
					OFFSET -2.65692 -7.29983 0.00000
					CHANNELS 3 Zrotation Yrotation Xrotation
					JOINT RightToe
					{
						OFFSET -0.18839 -0.51760 2.29390
						CHANNELS 3 Zrotation Yrotation Xrotation
						End Site
						{
							OFFSET -0.00000 -0.00000 1.18261
						}
					}
				}
			}
		}
	}
	JOINT lowerback
	{
		OFFSET 0 0 0
		CHANNELS 3 Zrotation Yrotation Xrotation
		JOINT Chest
		{
			OFFSET 0.05220 2.15489 0.05011
			CHANNELS 3 Zrotation Yrotation Xrotation
			JOINT Chest2
			{
				OFFSET -0.07653 2.14219 -0.05668
				CHANNELS 3 Zrotation Yrotation Xrotation
				JOINT lowerneck
				{
					OFFSET 0 0 0
					CHANNELS 3 Zrotation Yrotation Xrotation
					JOINT Neck
					{
						OFFSET 0.01370 1.58638 0.01447
						CHANNELS 3 Zrotation Yrotation Xrotation
						JOINT Head
						{
							OFFSET 0.23548 1.54190 -0.21747
							CHANNELS 3 Zrotation Yrotation Xrotation
							End Site
							{
								OFFSET 0.07132 1.59823 -0.08163
							}
						}
					}
				}
				JOINT LeftCollar
				{
					OFFSET 0 0 0
					CHANNELS 3 Zrotation Yrotation Xrotation
					JOINT LeftShoulder
					{
						OFFSET 3.47056 1.45357 -0.58896
CHANNELS 3 Zrotation Xrotation Yrotation
						JOINT LeftElbow
						{
OFFSET 0 -5.190690 0.000000
CHANNELS 3 Zrotation Xrotation Yrotation
							JOINT LeftWrist
							{
OFFSET 0 -3.300160 0.000000
CHANNELS 3 Zrotation Xrotation Yrotation
								JOINT lhand
								{
									OFFSET 0 0 0
CHANNELS 3 Zrotation Xrotation Yrotation
									JOINT LFingers
									{
OFFSET 0 -0.707700 0.000000
CHANNELS 3 Zrotation Xrotation Yrotation
										End Site
										{
OFFSET 0 -0.570560 0.000000
										}
									}
								}
								JOINT LThumb
								{
OFFSET 0 0.000000 0.000000
CHANNELS 3 Zrotation Xrotation Yrotation
									End Site
									{
OFFSET 0 -0.579280 0.579280
									}
								}
							}
						}
					}
				}
				JOINT RightCollar
				{
					OFFSET 0 0 0
					CHANNELS 3 Zrotation Yrotation Xrotation
					JOINT RightShoulder
					{
						OFFSET -2.89018 2.03305 -0.26731
CHANNELS 3 Zrotation Xrotation Yrotation
						JOINT RightElbow
						{
OFFSET 0 -5.239240 0.000000
CHANNELS 3 Zrotation Xrotation Yrotation
							JOINT RightWrist
							{
OFFSET 0 -3.329530 0.000000
CHANNELS 3 Zrotation Xrotation Yrotation
								JOINT rhand
								{
									OFFSET 0 0 0
CHANNELS 3 Zrotation Xrotation Yrotation
									JOINT RFingers
									{
OFFSET 0 -0.607410 0.000000
CHANNELS 3 Zrotation Xrotation Yrotation
										End Site
										{
OFFSET 0 -0.489710 0.000000
										}
									}
								}
								JOINT RThumb
								{
OFFSET 0 0.000000 0.000000
CHANNELS 3 Zrotation Xrotation Yrotation
									End Site
									{
OFFSET 0 -0.497190 0.497190
									}
								}
							}
						}
					}
				}
			}
		}
	}
}
MOTION
Frames: 7
Frame Time: 0.008333333333333333
28.891000 15.884300 -29.090200 -4.755800 -50.017200 17.459200 0.000000 0.000000 0.000000 -16.699000 -1.748800 -58.567100 10.135800 17.485500 59.941400 1.178000 4.115800 -22.366400 0.056600 -1.535200 -4.222700 0.000000 0.000000 0.000000 13.301200 20.626200 -49.065000 -11.426400 -18.137500 64.158600 -1.994700 -4.757000 -28.722100 -0.396500 4.043200 -11.198100 6.061800 -3.884000 33.754300 -2.723100 -4.311400 16.970100 -4.784900 -2.029500 0.897400 4.656500 4.603100 -1.923200 -3.531100 5.730300 -20.785600 -2.120000 2.576500 -5.717600 -0.000000 -0.000000 0.000000 41.436400 -66.034700 -33.064400 67.372300 -57.974100 40.537100 36.734400 -47.355500 -11.804600 0.000000 0.000000 0.000000 -7.125000 0.000000 0.000000 8.859900 44.413500 0.129300 -0.000000 -0.000000 0.000000 -12.420100 -3.930500 56.041200 -118.724400 -56.640400 -84.595500 -35.376000 25.991600 7.442900 0.000000 0.000000 0.000000 7.125000 0.000000 -0.000000 -7.434100 38.980500 -1.109700
28.885647 15.886963 -29.093916 -4.785008 -50.038044 17.427566 0.000000 0.000000 0.000000 -16.667586 -1.696885 -58.500039 10.138409 17.486935 59.950119 1.181171 4.107161 -22.388472 0.056244 -1.530471 -4.209635 0.000000 0.000000 0.000000 13.386019 20.556128 -48.997822 -11.421203 -18.135048 64.141935 -1.998633 -4.671361 -28.704578 -0.387204 3.995800 -11.064890 6.009885 -3.841705 33.818881 -2.691525 -4.272005 16.980913 -4.734265 -2.016017 0.896317 4.616069 4.590246 -1.920802 -3.506080 5.714497 -20.820460 -2.105777 2.569087 -5.731683 0.000000 0.000000 0.000000 41.645379 -66.123013 -32.880738 67.419360 -57.982846 40.576954 39.107242 -48.528574 -9.324322 0.000000 0.000000 0.000000 -7.125000 0.000000 0.000000 10.894566 41.675517 0.905352 0.000000 0.000000 0.000000 -12.536486 -3.928555 55.952405 -118.775474 -56.627462 -84.638115 -35.490780 26.049700 7.574855 0.000000 0.000000 0.000000 7.125000 0.000000 0.000000 -7.540922 39.149934 -1.094225
28.880058 15.881508 -29.100311 -4.827499 -50.035220 17.441308 0.000000 0.000000 0.000000 -16.613005 -1.634826 -58.542901 10.156196 17.496767 60.009227 1.182846 4.049406 -22.371056 0.057555 -1.547812 -4.257630 0.000000 0.000000 0.000000 13.464969 20.529765 -49.007987 -11.431309 -18.139807 64.174546 -2.000742 -4.638335 -28.702280 -0.386573 3.992536 -11.055748 6.051647 -3.851587 33.889897 -2.736511 -4.267985 16.951969 -4.799237 -2.010540 0.834513 4.628511 4.591826 -1.867741 -3.465935 5.727678 -20.839068 -2.097583 2.572059 -5.747242 0.000000 0.000000 0.000000 41.851050 -66.107811 -32.882021 67.461393 -57.990758 40.612667 38.891099 -48.411408 -9.678810 0.000000 0.000000 0.000000 -7.125000 0.000000 0.000000 10.729711 42.091301 0.779813 0.000000 0.000000 0.000000 -12.476312 -3.915142 55.908956 -118.681172 -56.651217 -84.559375 -35.384792 25.894353 7.350099 0.000000 0.000000 0.000000 7.125000 0.000000 0.000000 -7.437451 38.868997 -1.130665
28.875028 15.878069 -29.106921 -4.850954 -50.015997 17.438056 0.000000 0.000000 0.000000 -16.563206 -1.603385 -58.567518 10.175886 17.507565 60.074455 1.185723 4.002208 -22.369434 0.058241 -1.557395 -4.284022 0.000000 0.000000 0.000000 13.535229 20.477874 -49.024476 -11.450612 -18.148624 64.236389 -2.005970 -4.598681 -28.716283 -0.386741 3.993346 -11.057798 6.039523 -3.836567 33.936247 -2.725952 -4.249206 16.941419 -4.784799 -2.003402 0.810418 4.597789 4.581860 -1.843039 -3.444241 5.718096 -20.844428 -2.086306 2.568402 -5.755113 0.000000 0.000000 0.000000 41.699357 -66.148996 -33.013609 67.412459 -57.981606 40.571207 38.889014 -48.381971 -9.682489 0.000000 0.000000 0.000000 -7.125000 0.000000 0.000000 10.728080 42.095575 0.778589 0.000000 0.000000 0.000000 -12.494555 -3.929804 55.842306 -118.627709 -56.664658 -84.514674 -35.383242 25.865428 7.334758 0.000000 0.000000 0.000000 7.125000 0.000000 0.000000 -7.435216 38.850405 -1.133769
28.870270 15.873852 -29.115405 -4.844430 -49.983267 17.429503 0.000000 0.000000 0.000000 -16.526174 -1.586798 -58.611295 10.192963 17.516977 60.131373 1.186919 3.953401 -22.353583 0.058500 -1.561018 -4.293881 0.000000 0.000000 0.000000 13.584041 20.417589 -49.075373 -11.472603 -18.158678 64.306949 -2.010002 -4.566047 -28.726462 -0.387310 3.996575 -11.067043 5.996861 -3.810336 33.964960 -2.703131 -4.224502 16.926055 -4.744110 -1.995504 0.790017 4.563109 4.562742 -1.823974 -3.422632 5.695303 -20.834383 -2.073329 2.558820 -5.757837 0.000000 0.000000 0.000000 41.473877 -66.188253 -33.215973 67.330112 -57.966119 40.501309 38.782854 -48.334165 -9.760045 0.000000 0.000000 0.000000 -7.125000 0.000000 0.000000 10.637432 42.178863 0.749720 0.000000 0.000000 0.000000 -12.507543 -3.950538 55.771935 -118.565641 -56.680153 -84.462883 -35.426139 25.892607 7.382906 0.000000 0.000000 0.000000 7.125000 0.000000 0.000000 -7.475046 38.912165 -1.128508
28.865547 15.869781 -29.124609 -4.812473 -49.949029 17.407359 0.000000 0.000000 0.000000 -16.505883 -1.573923 -58.656369 10.208401 17.525403 60.182656 1.188337 3.902865 -22.337909 0.058668 -1.562729 -4.298583 0.000000 0.000000 0.000000 13.613812 20.355178 -49.138857 -11.497715 -18.170185 64.387600 -2.014787 -4.534156 -28.741849 -0.388271 4.001421 -11.080659 5.940237 -3.779604 33.991315 -2.685876 -4.197815 16.904274 -4.702423 -1.987105 0.763437 4.537026 4.537525 -1.810863 -3.390181 5.665885 -20.812901 -2.057702 2.544667 -5.756310 0.000000 0.000000 0.000000 41.362637 -66.210148 -33.387584 67.247717 -57.950647 40.431494 38.729744 -48.380594 -9.778162 0.000000 0.000000 0.000000 -7.125000 0.000000 0.000000 10.590375 42.194804 0.742021 0.000000 0.000000 0.000000 -12.503634 -3.965127 55.704588 -118.499427 -56.696751 -84.407517 -35.448686 25.887771 7.389842 0.000000 0.000000 0.000000 7.125000 0.000000 0.000000 -7.495118 38.922505 -1.129629
28.860473 15.865679 -29.132896 -4.769017 -49.924293 17.368877 0.000000 0.000000 0.000000 -16.505748 -1.539872 -58.696176 10.224368 17.534048 60.235571 1.190757 3.838297 -22.323754 0.059064 -1.568512 -4.314603 0.000000 0.000000 0.000000 13.631234 20.305745 -49.188494 -11.523328 -18.181818 64.469770 -2.020573 -4.504650 -28.765062 -0.388900 4.004536 -11.089489 5.909389 -3.761318 34.025846 -2.706112 -4.179643 16.877766 -4.710132 -1.979580 0.723463 4.549214 4.514757 -1.806305 -3.341726 5.643850 -20.772840 -2.042936 2.530513 -5.746779 0.000000 0.000000 0.000000 41.446455 -66.199425 -33.449199 67.189818 -57.939738 40.382457 38.748020 -48.504868 -9.735537 0.000000 0.000000 0.000000 -7.125000 0.000000 0.000000 10.603447 42.144093 0.756432 0.000000 0.000000 0.000000 -12.448917 -3.966773 55.653577 -118.413803 -56.718023 -84.335924 -35.414835 25.822133 7.329831 0.000000 0.000000 0.000000 7.125000 0.000000 0.000000 -7.462574 38.847071 -1.138625
